<svg xmlns="http://www.w3.org/2000/svg" width="256" height="256"><path fill-opacity=".016" d="M0 128.004v128.004l128.25-.254 128.25-.254.254-127.75L257.008 0H0v128.004m.485.496c0 70.4.119 99.053.265 63.672.146-35.38.146-92.98 0-128C.604 29.153.485 58.1.485 128.5" fill="#1976D2" fill-rule="evenodd"/><path fill-opacity=".362" d="M108.25 22.696c-2.532.499-2.72 1.529-1.167 6.405 4.256 13.366 11.196 26.14 18.335 33.752l4.082 4.353-3-.585c-14.735-2.875-39.285-3.652-51.873-1.641-7.222 1.153-17.608 4.171-25.127 7.299-5.397 2.246-21.155 11.354-21.996 12.714-.656 1.063 9.933 9.039 17.879 13.466C52.931 102.665 65.642 107 70.426 107c4.628 0 4.553 1.245-.176 2.95-14.217 5.124-27.866 19.778-32.713 35.123-2.736 8.659-3.577 14.063-3.85 24.721-.175 6.818-.039 7.331 2.079 7.862 1.246.313 6.328-.116 11.294-.954 11.154-1.88 22.793-7.17 28.137-12.788 2.092-2.199 3.803-3.833 3.803-3.63 0 .202-1.081 3.483-2.402 7.292-6.729 19.392-5.901 40.302 2.571 64.924 1.135 3.3 2.446 6.412 2.914 6.917 1.264 1.363 10.936-1.082 17.638-4.46 5.853-2.949 11.496-7.549 14.444-11.774l1.617-2.317 5.304 4.014c7.324 5.543 13.398 8.706 23.335 12.149 8.769 3.038 24.067 5.391 31.079 4.779l4-.349-5.073-1.623c-22.638-7.242-40.393-26.441-47.669-51.545-1.917-6.616-2.255-10.129-2.239-23.291.019-14.783.164-15.905 3.135-24.261 4.104-11.541 8.376-18.555 16.679-27.382 13.865-14.74 28.445-20.482 58.138-22.895 9.891-.804 20.105-1.462 22.697-1.462 2.593 0 4.965-.406 5.272-.903.955-1.544-12.661-18.137-23.061-28.101-19.977-19.143-42.041-30.912-66.38-35.408-8.503-1.571-28.511-2.726-32.749-1.892m-53.93 5.652c-2.3.634-4.487 1.464-4.861 1.845-.373.382 1.641 3.147 4.477 6.146C59.286 41.996 69.172 47.62 78 50.029c4.676 1.276 20.56 1.745 21.665.639.994-.993-4.303-8.018-10.509-13.938-9.285-8.857-22.005-11.917-34.836-8.382" fill="#1976D2" fill-rule="evenodd"/><path fill-opacity=".425" d="M106.818 23.481c-1.227 1.289 6.239 20.855 10.692 28.019 2.392 3.85 6.205 8.8 8.472 11l4.121 4-.801-7c-.928-8.102-1.068-22.072-.229-22.908.315-.314 5.19-1.113 10.832-1.775 9.962-1.169 26.937-.245 32.622 1.776 4.658 1.656-.446-1.582-6.419-4.073-13.629-5.682-27.459-8.6-43.608-9.199-8.25-.306-15.307-.234-15.682.16M58 28.174c-3.575.51-6.889 1.316-7.365 1.792-1.327 1.325 3.85 7.439 9.669 11.419 8.043 5.501 17.794 8.771 27.696 9.286 11.752.612 12.385-.082 6.676-7.32-7.607-9.643-13.39-13.457-23.13-15.258-3.252-.601-6.168-1.037-6.48-.97-.311.068-3.491.541-7.066 1.051m20.5 36.533c-5.305.72-22.677 5.502-27.918 7.684-6.784 2.826-16.409 8.151-19.957 11.041l-2.875 2.343 5.565 4.362c7.964 6.245 20.804 12.522 30.875 15.095 4.78 1.221 8.968 1.944 9.306 1.606.338-.339-.58-1.903-2.041-3.477C66.255 97.757 60 88.772 60 86.904c0-2.955 13.176-16.17 18.904-18.96 4.753-2.315 6.585-4.123 3.846-3.794-.687.082-2.6.333-4.25.557m31 5.218c-6.487 3.204-15.154 11.208-14.058 12.982 1.004 1.624 25.175 1.369 41.351-.436 17.685-1.974 24.073-3.032 22.207-3.679-.825-.286-4.875-1.537-9-2.78-7.303-2.2-14.162-5.18-16.807-7.302-.718-.577-4.993-1.206-9.5-1.399-7.445-.318-8.741-.079-14.193 2.614m99 17.757c-22.528 1.468-31.987 3.06-41.467 6.977-7.308 3.019-16.827 8.986-21.874 13.712-9.808 9.184-18.789 25.389-21.593 38.961-1.596 7.728-2.137 28.219-.801 30.327.404.637.582-3.51.395-9.215-.765-23.327 9.341-47.257 25.774-61.034 7.032-5.895 19.544-12.077 29.029-14.342 4.518-1.079 14.587-2.472 22.376-3.094 27.072-2.165 30.155-2.486 29.161-3.039-.55-.306-10 .03-21 .747M73.046 162.553c-2.933 2.504-7.105 5.457-9.271 6.562C58.171 171.974 45.607 175 39.34 175c-3.353 0-5.34.427-5.34 1.148 0 1.71 14.12.377 22-2.077 7.536-2.347 18.025-8.893 21.045-13.134 1.15-1.615 1.921-2.937 1.713-2.937-.207 0-2.778 2.049-5.712 4.553m50.033 19.03c.048 1.165.285 1.402.604.605.289-.722.253-1.585-.079-1.917-.332-.332-.568.258-.525 1.312m.921 3.976c0 .857.457 1.276 1.016.931.559-.346.758-1.047.441-1.559-.857-1.387-1.457-1.129-1.457.628m-12.885 37.447c-4.071 5.067-16.275 12.264-23.559 13.894-3.07.687-5.354 1.618-5.075 2.07.813 1.315 8.444-.806 16.068-4.467 4.76-2.286 8.779-5.214 12.376-9.018l5.328-5.632 3.123 2.953c1.718 1.625 6.81 5.057 11.316 7.628 9.56 5.455 27.739 10.566 37.581 10.566 8.638 0 6.51-.979-4.422-2.036-5.143-.496-11.958-1.591-15.144-2.432-8.454-2.231-20.381-8.052-26.873-13.114-3.116-2.43-6.078-4.418-6.582-4.418-.505 0-2.366 1.803-4.137 4.006" fill="#1976D2" fill-rule="evenodd"/><path fill-opacity=".316" d="M107 23.965c0 2.689 4.675 15.635 8.044 22.275C118.921 53.883 127.143 65 128.919 65c.42 0 .412-2.138-.018-4.75s-.809-9.076-.841-14.363l-.06-9.614 6.25-1.386c6.736-1.495 22.161-1.833 30.25-.664 4.696.678 4.848.634 2.5-.732-4.368-2.541-17.863-6.466-27.648-8.04C130.078 23.959 107 22.899 107 23.965m-50.5 4.47c-.55.214-2.257.668-3.793 1.007l-2.794.618 2.723 3.788c2.734 3.803 10.269 9.484 15.864 11.96 8.712 3.856 27.708 6.318 30.121 3.904.723-.723-7.025-10.046-11.608-13.969-6.716-5.748-10.44-7.094-20.513-7.414-4.95-.156-9.45-.109-10 .106m22 36.753c-2.2.515-8.5 1.972-14 3.239-10.645 2.452-23.831 8.24-31.829 13.974l-4.829 3.461 6.329 4.648C45.727 98.997 62.114 106 70.42 106c2.548 0 2.457-.205-2.847-6.457C62.36 93.397 59 88.166 59 86.194c0-2.035 12.556-14.415 18.075-17.821C80.334 66.362 83 64.555 83 64.358c0-.197-.112-.301-.25-.232-.138.07-2.05.548-4.25 1.062m36.697 3.328c-2.916.809-6.291 1.993-7.5 2.632C104.344 72.921 95 81.108 95 82.273c0 1.357 40.061.103 53-1.659 9.696-1.32 9.885-1.666 2-3.644-2.475-.621-7.729-2.857-11.676-4.968-8.612-4.607-15.392-5.629-23.127-3.486m105.067 19.202c1.52.229 3.77.223 5-.014 1.23-.237-.014-.425-2.764-.418-2.75.008-3.756.202-2.236.432m-15 1c1.52.229 3.77.223 5-.014 1.23-.237-.014-.425-2.764-.418-2.75.008-3.756.202-2.236.432m-14.502.989c1.244.239 3.044.23 4-.02s-.062-.446-2.262-.435c-2.2.011-2.982.216-1.738.455m-29.321 7.848c-1.83 1.467-1.798 1.487.559.365 3.061-1.458 3.628-1.92 2.358-1.92-.537 0-1.849.7-2.917 1.555M152.5 103c-1.65 1.093-2.55 1.98-2 1.971 1.003-.016 6.44-3.913 5.5-3.942-.275-.009-1.85.878-3.5 1.971m-10.047 9.25-3.953 4.25 4.25-3.953c2.338-2.174 4.25-4.087 4.25-4.25 0-.757-.871.001-4.547 3.953m-5.581 6.5c-1.243 1.586-1.208 1.621.378.378.963-.755 1.75-1.543 1.75-1.75 0-.823-.821-.294-2.128 1.372M134 123c-.589 1.1-.845 2-.57 2s.981-.9 1.57-2c.589-1.1.845-2 .57-2s-.981.9-1.57 2m-5.376 9.539c-.965 2.514-.681 3.163.498 1.136.584-1.004.851-2.036.593-2.293-.257-.258-.749.263-1.091 1.157m-81.811 43.144c.721.289 1.584.253 1.916-.079.332-.332-.258-.568-1.312-.525-1.165.048-1.402.285-.604.604m-11.063 1.023c1.237.238 3.263.238 4.5 0 1.237-.239.225-.434-2.25-.434s-3.487.195-2.25.434M110 224.807c-1.375 1.501-3.625 3.529-5 4.507-1.375.978-1.825 1.459-1 1.068 3.196-1.513 7.05-4.607 8.037-6.452 1.375-2.568.953-2.387-2.037.877m-19.187 11.876c.721.289 1.584.253 1.916-.079.332-.332-.258-.568-1.312-.525-1.165.048-1.402.285-.604.604" fill="#1976D2" fill-rule="evenodd"/></svg>